{"title":"Outland 1981 BRRip XviD MP3 Idiocracy","uid":9101385,"size":836601065,"categoryP":"video","categoryS":"movies","magnet":"?xt=urn:btih:d31919d76b711d6b98a341d60fecbcac49a28cf8&amp;dn=Outland+1981+BRRip+XviD+MP3+Idiocracy&amp;tr=udp%3A%2F%2Ftracker.openbittorrent.com%3A80&amp;tr=udp%3A%2F%2Fopen.demonii.com%3A1337&amp;tr=udp%3A%2F%2Ftracker.coppersurfer.tk%3A6969&amp;tr=udp%3A%2F%2Fexodus.desync.com%3A6969","seeders":1,"leechers":0,"uploader":"Satafakap","files":3,"time":1382775733,"description":"General\n\nComplete name         : Outland.1981.BRRip.XviD.MP3-Idiocracy.avi\nFormat                : AVI\nFormat/Info           : Audio Video Interleave\nFile size             : 794 MiB\nDuration              : 1h 49mn\nOverall bit rate      : 1 016 Kbps\nWriting application   : VirtualDubMod 1.5.10.3 | www.virtualdub-fr.org || (build\n                        2550/release)\nWriting library       : VirtualDubMod build 2550/release\nSource\t\t      : Outland.1981.1080p.BluRay.x264.anoXmous_ - Thanks.\nSample\t\t      : Yes\n\nVideo\n\nID                                       : 0\nFormat                                   : MPEG-4 Visual\nFormat profile                           : Advanced Simple@L5\nFormat settings, BVOP                    : 4\nFormat settings, QPel                    : No\nFormat settings, GMC                     : No warppoints\nFormat settings, Matrix                  : Default (H.263)\nCodec ID                                 : XVID\nCodec ID/Hint                            : XviD\nDuration                                 : 1h 49mn\nBit rate                                 : 879 Kbps\nWidth                                    : 640 pixels\nHeight                                   : 272 pixels\nDisplay aspect ratio                     : 2.35:1\nFrame rate                               : 23.976 fps\nColor space                              : YUV\nChroma subsampling                       : 4:2:0\nBit depth                                : 8 bits\nScan type                                : Progressive\nCompression mode                         : Lossy\nBits/(Pixel*Frame)                       : 0.211\nStream size                              : 687 MiB (86%)\nWriting library                          : XviD 1.2.1 (UTC 2008-12-04)\n\nAudio\n\nID                                       : 1\nFormat                                   : MPEG Audio\nFormat version                           : Version 1\nFormat profile                           : Layer 3\nCodec ID                                 : 55\nCodec ID/Hint                            : MP3\nDuration                                 : 1h 49mn\nBit rate mode                            : Constant\nBit rate                                 : 128 Kbps\nChannel(s)                               : 2 channels\nSampling rate                            : 48.0 KHz\nCompression mode                         : Lossy\nStream size                              : 100 MiB (13%)\nAlignment                                : Aligned on interleaves\nInterleave, duration                     : 42 ms (1.00 video frame)\nInterleave, preload duration             : 504 ms\nWriting library                          : LAME3.99r\nEncoding settings                        : -m s -V 4 -q 2 -lowpass 17 -b 128","torrent":{"xt":"urn:btih:d31919d76b711d6b98a341d60fecbcac49a28cf8","amp;dn":"Outland+1981+BRRip+XviD+MP3+Idiocracy","amp;tr":["udp%3A%2F%2Ftracker.openbittorrent.com%3A80","udp%3A%2F%2Fopen.demonii.com%3A1337","udp%3A%2F%2Ftracker.coppersurfer.tk%3A6969","udp%3A%2F%2Fexodus.desync.com%3A6969"],"infoHash":"d31919d76b711d6b98a341d60fecbcac49a28cf8","infoHashBuffer":{"type":"Buffer","data":[211,25,25,215,107,113,29,107,152,163,65,214,15,236,188,172,73,162,140,248]},"announce":[],"urlList":[]}}